# xmcd CD database file generated by OrangeCD 5.2
#
# Track frame offsets:
#	183
#	16730
#	26855
#	38943
#	45973
#	61815
#
# Disc length: 1066 seconds
#
# Revision: 2
# Processed by: cddbd v1.5PL3 Copyright (c) Steve Scherf et al.
# Submitted via: OrangeCD 5.2
#
DISCID=3f042806
DTITLE=Trumans Water - 10 x My Age
DYEAR=1993
DGENRE=
TTITLE0=Empty Queen II
TTITLE1=Second Bass Drum
TTITLE2=Enflamed (sic)
TTITLE3=Paid Squat
TTITLE4=Parabolic
TTITLE5=Action Sound Deadman
EXTD=
EXTT0=
EXTT1=
EXTT2=
EXTT3=
EXTT4=
EXTT5=
PLAYORDER=
